<svg width="64" height="64" viewBox="0 0 471 471" fill="none" xmlns="http://www.w3.org/2000/svg">
<rect x="16.5" y="16.5" width="438" height="438" rx="91.5" stroke="white" stroke-width="33"/>
<g clip-path="url(#clip0)">
<path d="M358.53 320.293L308.579 270.34L344.215 249.757C347 248.148 348.62 245.092 348.388 241.884C348.157 238.676 346.113 235.883 343.127 234.692L184.218 171.304C181.103 170.06 177.546 170.792 175.174 173.164C172.802 175.537 172.069 179.093 173.312 182.208L236.691 341.135C237.882 344.122 240.676 346.166 243.884 346.398C247.092 346.631 250.149 345.01 251.757 342.224L272.339 306.588L322.286 356.541C323.86 358.115 325.996 359 328.221 359C330.448 359 332.583 358.115 334.157 356.541L358.531 332.163C361.808 328.885 361.808 323.571 358.53 320.293Z" fill="white"/>
<path d="M146.856 132.975C143.577 129.699 138.264 129.698 134.984 132.975C131.707 136.253 131.707 141.568 134.984 144.846L153.635 163.497C155.274 165.136 157.421 165.956 159.57 165.956C161.718 165.956 163.866 165.136 165.505 163.497C168.783 160.219 168.783 154.905 165.505 151.627L146.856 132.975Z" fill="white"/>
<path d="M153.176 191.003C153.176 186.369 149.418 182.61 144.782 182.61H118.406C113.77 182.61 110.011 186.368 110.011 191.003C110.011 195.639 113.769 199.398 118.406 199.398H144.782C149.418 199.397 153.176 195.639 153.176 191.003Z" fill="white"/>
<path d="M149.774 216.909L131.12 235.562C127.843 238.84 127.843 244.155 131.12 247.433C132.76 249.071 134.908 249.891 137.056 249.891C139.203 249.891 141.352 249.071 142.991 247.433L161.643 228.781C164.922 225.503 164.922 220.188 161.643 216.909C158.366 213.634 153.054 213.633 149.774 216.909Z" fill="white"/>
<path d="M193.009 151.167C197.645 151.167 201.404 147.409 201.404 142.772V116.394C201.404 111.758 197.645 108 193.009 108C188.375 108 184.615 111.757 184.615 116.394V142.773C184.615 147.409 188.374 151.167 193.009 151.167Z" fill="white"/>
<path d="M224.846 162.093C226.996 162.093 229.143 161.273 230.782 159.634L249.432 140.983C252.71 137.705 252.71 132.39 249.432 129.112C246.154 125.835 240.839 125.835 237.561 129.112L218.911 147.764C215.633 151.042 215.633 156.357 218.911 159.634C220.551 161.273 222.698 162.093 224.846 162.093Z" fill="white"/>
</g>
<defs>
<clipPath id="clip0">
<rect width="251" height="251" fill="white" transform="translate(110 108)"/>
</clipPath>
</defs>
</svg>
